<?xml version="1.0" encoding="UTF-8"?>
<svg viewBox="0 0 455.71429 581.42859" xmlns="http://www.w3.org/2000/svg" xmlns:xlink="http://www.w3.org/1999/xlink">
 <defs>
  <linearGradient id="a">
   <stop stop-color="#009a11" offset="0"/>
   <stop stop-color="#00cb17" offset="1"/>
  </linearGradient>
  <linearGradient id="c" x1="-742.14" x2="-286.43" gradientUnits="userSpaceOnUse" xlink:href="#a"/>
  <linearGradient id="b" x1="-689.56" x2="-339.01" gradientUnits="userSpaceOnUse" xlink:href="#a"/>
 </defs>
 <g transform="translate(742.14 -53.076)">
  <path d="m-685.71 216.65h342.86v412.86h-342.86z" fill="url(#b)" stroke="#005e04" stroke-linejoin="round" stroke-width="10"/>
  <path d="m-737.14 58.076h445.71v162.86h-445.71z" fill="url(#c)" stroke="#005e04" stroke-linejoin="round" stroke-width="10"/>
  <path d="m-467.87 63.076h68.596v152.5h-68.596z" fill="#00d818"/>
  <path d="m-381.3 63.076h27.168v152.5h-27.168z" fill="#00d818"/>
  <path d="m-492.16 226.29h68.596v396.79h-68.596z" fill="#00d818"/>
  <path d="m-405.58 226.29h27.168v396.79h-27.168z" fill="#00d818"/>
  <path d="m-731.79 63.097h51.429v152.66h-51.429z" fill="#00820e"/>
  <path d="m-680.36 225.95h51.429v398.37h-51.429z" fill="#00820e"/>
  <path d="m-739.43 59.382h16.162v156.57h-16.162z" fill="#005e04"/>
  <path d="m-689.93 224.04h16.162v403.05h-16.162z" fill="#005e04"/>
  <path d="m-667.79 63.097h7.992v152.66h-7.992z" fill="#00820e"/>
  <path d="m-618.04 225.73h7.992v398.63h-7.992z" fill="#00820e"/>
 </g>
</svg>
